<?xml version="1.0" encoding="UTF-8"?>
<svg version="1.1" xmlns="http://www.w3.org/2000/svg" width="458" height="542">
<path d="M0 0 C2.15023653 -0.00571459 4.30047004 -0.01268302 6.45069885 -0.02079773 C12.24133631 -0.03861095 18.03182129 -0.0375848 23.82247782 -0.03185534 C28.66663085 -0.02875035 33.51075514 -0.03486952 38.35490406 -0.04089409 C49.7765037 -0.05489486 61.19802845 -0.05341142 72.61962891 -0.04199219 C84.39647684 -0.03047799 96.17309791 -0.04465213 107.94991601 -0.07138866 C118.08105035 -0.0935263 128.21211336 -0.1001885 138.34327018 -0.09431225 C144.38625212 -0.09094138 150.42908817 -0.09336835 156.47204971 -0.11056328 C162.14395867 -0.12600242 167.8155294 -0.12211047 173.48742485 -0.10325813 C175.56834154 -0.09956581 177.64928317 -0.10269937 179.73017693 -0.11314392 C182.56962505 -0.12630931 185.40794561 -0.11484637 188.24734497 -0.09715271 C189.07107168 -0.10675772 189.8947984 -0.11636272 190.74348652 -0.12625879 C197.96295675 -0.03363228 202.15621704 3.09315117 207.17529297 8.15405273 C210.21046777 11.26910056 212.81663229 14.49444886 215.35888672 18.01342773 C217.7842698 21.20554482 220.37564947 24.23898821 222.98779297 27.27905273 C223.51050781 27.88740967 224.03322266 28.4957666 224.57177734 29.12255859 C227.63333672 32.66639894 230.75381341 36.14524825 233.92529297 39.59155273 C236.88848776 42.84681869 239.51490144 46.18126031 242.05029297 49.77905273 C245.84718704 55.15417386 250.12477555 59.83115378 254.65966797 64.57983398 C257.15504544 67.38132142 259.10780429 70.28030251 261.17529297 73.40405273 C262.74360702 75.22718498 264.34901943 77.01898415 265.98779297 78.77905273 C266.86177734 79.72780273 267.73576172 80.67655273 268.63623047 81.65405273 C269.47412109 82.56155273 270.31201172 83.46905273 271.17529297 84.40405273 C272.49482396 85.85602736 273.80828653 87.31356465 275.11279297 88.77905273 C275.89976562 89.6569043 275.89976562 89.6569043 276.70263672 90.55249023 C278.17529297 92.40405273 278.17529297 92.40405273 279.56201172 94.79858398 C281.42662892 97.80996334 283.60903377 100.15285956 286.05029297 102.71655273 C292.34162579 109.5222135 297.29721813 115.38780914 297.30392742 124.92908764 C297.30715187 126.08516433 297.31037631 127.24124102 297.31369847 128.43235034 C297.31214987 129.70838368 297.31060127 130.98441702 297.30900574 132.29911804 C297.31087311 133.66386329 297.31317352 135.028608 297.31587106 136.39335185 C297.32200545 140.15241415 297.32185352 143.91145426 297.32067668 147.67052042 C297.32047307 151.72193982 297.32598796 155.77335201 297.33073425 159.82476807 C297.33905234 167.76866629 297.34178969 175.71255709 297.34234663 183.65645929 C297.34282162 190.1183994 297.34487552 196.58033705 297.34804726 203.04227638 C297.35686004 221.37089954 297.36146612 239.69951683 297.36071678 258.02814212 C297.36065685 259.51129673 297.36065685 259.51129673 297.3605957 261.02441406 C297.36055482 262.01439531 297.36051394 263.00437656 297.36047182 264.02435724 C297.36006605 280.04065342 297.36961651 296.05692602 297.38373407 312.07321539 C297.39812183 328.52636985 297.40500281 344.97951284 297.40414029 361.43267375 C297.40380896 370.66640105 297.40652752 379.90010368 297.41731834 389.1338253 C297.42645535 397.00293139 297.42857275 404.87200165 297.42180892 412.74111076 C297.41855868 416.7511415 297.41843226 420.76110362 297.42716217 424.7711277 C297.43509585 428.45361173 297.43352671 432.13597354 297.42487804 435.81845484 C297.42264641 437.75800392 297.43011781 439.697557 297.43811768 441.63709086 C297.37020484 459.21011509 295.77145343 476.44591792 283.65576172 490.11889648 C275.97023017 497.46783541 265.26601433 500.48896855 254.901474 500.60540771 C253.79793789 500.61965794 253.79793789 500.61965794 252.67210811 500.63419604 C250.20176477 500.66475621 247.7314074 500.68829543 245.26098633 500.71166992 C243.48697873 500.73171035 241.71297479 500.75207647 239.93897438 500.77274323 C235.08924999 500.82758669 230.2394801 500.87552127 225.38966489 500.92155552 C222.31448589 500.95105388 219.23932652 500.98213567 216.1641674 501.01363373 C172.05488908 501.4621562 127.94554612 501.62374042 83.83415759 501.64287233 C72.91548618 501.64770243 61.99693366 501.66566057 51.07829815 501.69394803 C42.42492927 501.71556146 33.77159438 501.72564937 25.11819881 501.72698855 C20.02907825 501.7280246 14.94007544 501.73368832 9.85098457 501.75180817 C5.1375879 501.76831295 0.42439863 501.7704331 -4.28901672 501.76166916 C-6.00101342 501.76090375 -7.71302176 501.76517526 -9.4249897 501.77512741 C-24.46579605 501.85743835 -38.21094747 500.78224108 -50.04345703 490.47045898 C-63.16365265 477.12996157 -63.13099383 457.84553757 -63.07867432 440.2938385 C-63.08098292 438.59317738 -63.08416211 436.89251725 -63.08812881 435.19185919 C-63.09643063 430.5507834 -63.09237263 425.90979052 -63.08615637 421.26871455 C-63.08161387 416.25089958 -63.08862456 411.23309844 -63.09411621 406.21528625 C-63.1029929 396.39780758 -63.10109583 386.58035954 -63.09529093 376.76287968 C-63.0907674 368.78085093 -63.09016453 360.79883074 -63.09233856 352.81680107 C-63.09264503 351.67915573 -63.09295149 350.54151039 -63.09326725 349.36939095 C-63.09390672 347.05800712 -63.09455515 344.7466233 -63.09521243 342.43523949 C-63.10091074 320.77903995 -63.0943658 299.12285737 -63.0836117 277.46666061 C-63.07467785 258.90159338 -63.07622783 240.33655116 -63.08544922 221.77148438 C-63.09616274 200.19237034 -63.1003602 178.61327115 -63.09422469 157.03415483 C-63.09358762 154.73114328 -63.09295888 152.42813172 -63.09233856 150.12512016 C-63.09203001 148.99211154 -63.09172146 147.85910292 -63.09140356 146.69176071 C-63.08967978 138.72371861 -63.09258491 130.75568597 -63.09729767 122.78764534 C-63.10291858 113.07090039 -63.10136468 103.35418774 -63.09073618 93.63744647 C-63.08549557 88.68382686 -63.08339516 83.73026101 -63.09003448 78.77664185 C-63.09602959 74.23483583 -63.09266054 69.69313301 -63.08207938 65.15133625 C-63.07986035 63.51555219 -63.08094762 61.87975928 -63.08583096 60.24398101 C-63.13516203 42.3341132 -62.50124518 23.93788913 -49.18798828 10.49389648 C-35.86031677 -1.29173039 -16.75420268 -0.04059209 0 0 Z " fill="#D71617" transform="translate(116.82470703125,21.595947265625)"/>
<path d="M0 0 C0.33 0 0.66 0 1 0 C1 35.31 1 70.62 1 107 C34.99 107 68.98 107 104 107 C104.17176988 148.64027771 104.33614672 190.28055466 104.48431293 231.92092165 C104.50183362 236.84230091 104.51944382 241.76367985 104.53710938 246.68505859 C104.54062461 247.66477389 104.54413985 248.64448918 104.5477616 249.65389282 C104.60481587 265.49579891 104.66911363 281.33766769 104.736111 297.17953449 C104.80474723 313.44724614 104.86554667 329.71497362 104.91914403 345.98274183 C104.95243368 356.01244579 104.99176047 366.04208813 105.03892837 376.07173657 C105.07073163 382.95908745 105.09488973 389.84643936 105.11317255 396.73383927 C105.12392591 400.70133892 105.13791863 404.66875336 105.16103554 408.63620186 C105.44136775 457.95948473 105.44136775 457.95948473 91.48046875 473.71484375 C83.7949372 481.06378268 73.09072136 484.08491581 62.72618103 484.20135498 C61.62264492 484.2156052 61.62264492 484.2156052 60.49681515 484.23014331 C58.0264718 484.26070347 55.55611443 484.28424269 53.08569336 484.30761719 C51.31168576 484.32765762 49.53768182 484.34802373 47.76368141 484.36869049 C42.91395702 484.42353395 38.06418713 484.47146854 33.21437192 484.51750278 C30.13919293 484.54700115 27.06403355 484.57808294 23.98887444 484.60958099 C-20.12040389 485.05810346 -64.22974685 485.21968769 -108.34113538 485.2388196 C-119.25980679 485.24364969 -130.17835931 485.26160783 -141.09699482 485.2898953 C-149.75036369 485.31150873 -158.40369859 485.32159663 -167.05709416 485.32293582 C-172.14621472 485.32397187 -177.23521752 485.32963559 -182.3243084 485.34775543 C-187.03770506 485.36426021 -191.75089434 485.36638036 -196.46430969 485.35761642 C-198.17630639 485.35685101 -199.88831473 485.36112253 -201.60028267 485.37107468 C-215.29943665 485.44604341 -228.79734938 484.9012572 -240 476 C-242.86106593 473.14360139 -245.4838028 470.16281771 -248 467 C-244.22360441 456.88785066 -237.09966115 448.22551467 -230.70776367 439.6340332 C-226.58269331 434.02734039 -223.11218141 428.22436282 -220 422 C-219.34 422 -218.68 422 -218 422 C-217.61908203 420.92105469 -217.61908203 420.92105469 -217.23046875 419.8203125 C-215.90910522 416.79166339 -214.30939458 414.50352528 -212.3125 411.875 C-208.73010071 407.07889165 -205.5295709 402.14800743 -202.4453125 397.01953125 C-201.96835938 396.35308594 -201.49140625 395.68664062 -201 395 C-200.34 395 -199.68 395 -199 395 C-198.71125 394.236875 -198.4225 393.47375 -198.125 392.6875 C-197 390 -197 390 -195 387 C-194.34 387 -193.68 387 -193 387 C-192.731875 386.071875 -192.46375 385.14375 -192.1875 384.1875 C-191.03084794 381.08280237 -190.33341464 380.14674147 -188 378 C-187.5771875 377.29488281 -187.154375 376.58976562 -186.71875 375.86328125 C-184.62030978 372.36747061 -182.30265568 369.06879196 -179.9375 365.75 C-179.49083984 365.11320312 -179.04417969 364.47640625 -178.58398438 363.8203125 C-175.23807803 359.11903902 -175.23807803 359.11903902 -173 358 C-173 380.11 -173 402.22 -173 425 C-166.73 425 -160.46 425 -154 425 C-154 415.1 -154 405.2 -154 395 C-151.710625 394.896875 -149.42125 394.79375 -147.0625 394.6875 C-137.18632531 394.09940416 -128.75896156 392.16687255 -121.8125 384.625 C-116.7191038 377.24835723 -115.80753429 370.89675356 -115.75 362.1875 C-115.729375 361.41857422 -115.70875 360.64964844 -115.6875 359.85742188 C-115.6443981 353.47295346 -116.70119324 347.95181654 -120.69140625 342.828125 C-121.30886719 342.30734375 -121.92632812 341.7865625 -122.5625 341.25 C-123.16191406 340.71890625 -123.76132813 340.1878125 -124.37890625 339.640625 C-132.86190421 334.33084982 -140.74429269 333.37116809 -150.625 333.25 C-151.81996094 333.22035156 -153.01492187 333.19070313 -154.24609375 333.16015625 C-157.16412758 333.09012344 -160.08139335 333.03709822 -163 333 C-163 332.67 -163 332.34 -163 332 C-160.36 332 -157.72 332 -155 332 C-154.61714844 331.18208984 -154.61714844 331.18208984 -154.2265625 330.34765625 C-149.94263005 322.14815496 -144.10528809 314.65890644 -138.56640625 307.27734375 C-136.84699602 305.00279025 -136.84699602 305.00279025 -136 302 C-135.34 302 -134.68 302 -134 302 C-133.7525 301.29875 -133.505 300.5975 -133.25 299.875 C-131.84284874 296.63855209 -129.98207898 293.89869258 -128 291 C-127.53303711 290.31099609 -127.06607422 289.62199219 -126.58496094 288.91210938 C-108.99683858 262.98219184 -108.99683858 262.98219184 -105.40234375 259.4140625 C-103.53456061 257.53067114 -102.43014532 255.31267722 -101.15234375 253.0078125 C-97.23996586 246.19099136 -92.50556422 239.88324641 -87.83203125 233.578125 C-86.00251662 231.07570432 -86.00251662 231.07570432 -84.57763672 228.61865234 C-83.10891585 226.18078481 -81.55893857 223.85333775 -79.92578125 221.5234375 C-79.34425293 220.69271729 -78.76272461 219.86199707 -78.16357422 219.00610352 C-77.55271973 218.13783936 -76.94186523 217.2695752 -76.3125 216.375 C-75.68617676 215.48288818 -75.05985352 214.59077637 -74.41455078 213.67163086 C-63.29384176 197.85950759 -63.29384176 197.85950759 -58.98828125 192.4921875 C-54.16243688 186.44329024 -49.95252835 179.96728579 -45.8125 173.4375 C-41.82221653 167.15036193 -37.57977055 161.06384577 -33.25366211 155.00390625 C-30.06748486 150.53758232 -26.99074428 146.02758704 -24.0859375 141.37109375 C-23.72757813 140.91863281 -23.36921875 140.46617187 -23 140 C-22.34 140 -21.68 140 -21 140 C-20.690625 139.38125 -20.38125 138.7625 -20.0625 138.125 C-19.375 136.75 -18.6875 135.375 -18 134 C-17.34 134 -16.68 134 -16 134 C-15.79375 133.34 -15.5875 132.68 -15.375 132 C-14.09921567 129.21647056 -12.99498175 127.85354059 -11 125.625 C-3.94638177 116.32638341 -5.58187297 99.82276329 -5.16574097 88.57611084 C-4.47264204 70.02285851 -3.37934117 51.51315439 -2.05297852 32.99536133 C-1.92982539 31.27555517 -1.80669659 29.55574726 -1.68359375 27.8359375 C-1.62472488 27.01641098 -1.56585602 26.19688446 -1.50520325 25.3525238 C-0.90685027 16.90697206 -0.44152665 8.45501111 0 0 Z " fill="#B80E0F" transform="translate(309,38)"/>
<path d="M0 0 C10.23505959 2.04701192 16.27592163 9.43199779 22.18359375 17.609375 C24.60897683 20.80149209 27.2003565 23.83493548 29.8125 26.875 C30.33521484 27.48335693 30.85792969 28.09171387 31.39648438 28.71850586 C34.45804376 32.2623462 37.57852044 35.74119552 40.75 39.1875 C43.71319479 42.44276596 46.33960847 45.77720757 48.875 49.375 C52.67189407 54.75012113 56.94948258 59.42710105 61.484375 64.17578125 C63.97975247 66.97726869 65.93251132 69.87624978 68 73 C69.56831405 74.82313224 71.17372646 76.61493141 72.8125 78.375 C73.68648438 79.32375 74.56046875 80.2725 75.4609375 81.25 C76.29882812 82.1575 77.13671875 83.065 78 84 C79.31953099 85.45197463 80.63299356 86.90951192 81.9375 88.375 C82.46214844 88.96023437 82.98679687 89.54546875 83.52734375 90.1484375 C85 92 85 92 86.38671875 94.39453125 C88.25133595 97.40591061 90.4337408 99.74880683 92.875 102.3125 C104.1400048 114.4984395 104.1400048 114.4984395 104.11352539 123.10424805 C104.11341209 124.3351844 104.11341209 124.3351844 104.11329651 125.59098816 C104.10813522 126.47232925 104.10297394 127.35367035 104.09765625 128.26171875 C104.0962413 129.16751175 104.09482635 130.07330475 104.09336853 131.00654602 C104.08777001 133.90023091 104.07521781 136.79383849 104.0625 139.6875 C104.05748481 141.64908742 104.05292193 143.61067606 104.04882812 145.57226562 C104.03780107 150.38154021 104.02053747 155.190757 104 160 C103.67 160 103.34 160 103 160 C103 147.79 103 135.58 103 123 C69.01 123 35.02 123 0 123 C0 82.41 0 41.82 0 0 Z " fill="#E8625B" transform="translate(310,22)"/>
<path d="M0 0 C1.83111328 -0.04350586 1.83111328 -0.04350586 3.69921875 -0.08789062 C16.00250589 -0.1734215 25.37796172 2.78899005 34.375 11.3125 C36.50693511 13.47792101 37.95789178 15.62538822 39.375 18.3125 C39.84035156 19.18390625 40.30570312 20.0553125 40.78515625 20.953125 C47.108101 35.25460449 46.81180187 54.87129541 41.6328125 69.5390625 C36.81582801 80.1603637 29.84571656 87.44649212 18.8671875 91.5859375 C12.92070889 93.31955039 7.20313861 93.46662556 1.0625 93.4375 C-0.1430957 93.44330078 -0.1430957 93.44330078 -1.37304688 93.44921875 C-16.51264102 93.42485898 -16.51264102 93.42485898 -18.625 91.3125 C-18.72019368 88.5126028 -18.75053944 85.73743826 -18.73852539 82.93725586 C-18.73867142 82.05928848 -18.73881744 81.18132111 -18.7389679 80.27674866 C-18.73826844 77.36025565 -18.73047455 74.44382567 -18.72265625 71.52734375 C-18.72079218 69.51095108 -18.71936823 67.49455796 -18.71836853 65.47816467 C-18.71454244 60.15984862 -18.70471139 54.8415597 -18.69366455 49.52325439 C-18.68345238 44.10079312 -18.67887133 38.67832748 -18.67382812 33.25585938 C-18.6630892 22.60806097 -18.64601169 11.96028274 -18.625 1.3125 C-12.41493332 0.0007891 -6.33256725 0.04921684 0 0 Z " fill="#FCF6F6" transform="translate(223.625,370.6875)"/>
<path d="M0 0 C1.40114469 -0.01148347 2.8022469 -0.03187782 4.203125 -0.06152344 C16.25877686 -0.31603006 25.32060726 1.08594982 34.30249023 9.56079102 C40.9484929 16.65412079 40.2676766 24.7313127 40.14624023 33.85375977 C39.89284281 41.44142902 37.67641511 47.32508903 32.92749023 53.29516602 C22.77527454 62.78528069 15.17091815 62.29516602 0.92749023 62.29516602 C0.92749023 72.19516602 0.92749023 82.09516602 0.92749023 92.29516602 C-5.34250977 92.29516602 -11.61250977 92.29516602 -18.07250977 92.29516602 C-18.07250977 62.26516602 -18.07250977 32.23516602 -18.07250977 1.29516602 C-12.01762464 0.08418899 -6.14470091 0.0349739 0 0 Z " fill="#FCF5F5" transform="translate(154.072509765625,370.704833984375)"/>
<path d="M0 0 C16.17 0 32.34 0 49 0 C49 5.61 49 11.22 49 17 C38.77 17 28.54 17 18 17 C18 23.93 18 30.86 18 38 C27.57 38 37.14 38 47 38 C47 42.95 47 47.9 47 53 C37.43 53 27.86 53 18 53 C18 65.21 18 77.42 18 90 C12.06 90 6.12 90 0 90 C0 60.3 0 30.6 0 0 Z " fill="#FEFBFA" transform="translate(280,372)"/>
<path d="M0 0 C16.88888889 0 16.88888889 0 23.3125 6.25 C27.6093946 13.25234675 28.48001347 19.32396712 28.375 27.375 C28.38660156 28.25671875 28.39820313 29.1384375 28.41015625 30.046875 C28.3719258 38.73793141 26.68159828 47.18208207 21 54 C13.38418777 59.75071536 10.64923021 59 0 59 C0 39.53 0 20.06 0 0 Z " fill="#B81515" transform="translate(223,388)"/>
<path d="M0 0 C0.33 0 0.66 0 1 0 C1 35.64 1 71.28 1 108 C32.02 108 63.04 108 95 108 C95 108.33 95 108.66 95 109 C92.47937985 109.27293339 89.95856084 109.54367999 87.4375 109.8125 C86.6228125 109.89943115 85.808125 109.9863623 84.96875 110.07592773 C79.29608414 110.67334837 73.62031205 111.23104714 67.94140625 111.765625 C67.24655624 111.83138229 66.55170624 111.89713959 65.83580017 111.96488953 C60.20186021 112.49792711 60.20186021 112.49792711 57.39401245 112.7562561 C55.39780837 112.93991972 53.40201952 113.1280792 51.40625 113.31640625 C50.24416016 113.42412354 49.08207031 113.53184082 47.88476562 113.64282227 C44.93655213 113.91156033 44.93655213 113.91156033 42 115 C39.53869055 115.18157201 37.0893527 115.32424956 34.625 115.4375 C28.32272381 115.77423017 22.19268713 116.49250608 15.9609375 117.5234375 C8.61493584 118.7057755 1.43379395 119.1198999 -6 119 C-6.14749629 107.9579486 -5.69794286 96.96504425 -5.1875 85.9375 C-5.14464874 84.99312073 -5.10179749 84.04874146 -5.05764771 83.07574463 C-4.25311258 65.49434527 -3.12489607 47.9422486 -1.86653137 30.3881073 C-1.80616196 29.54589127 -1.74579254 28.70367523 -1.68359375 27.8359375 C-1.62471481 27.01640091 -1.56583588 26.19686432 -1.50517273 25.35249329 C-0.90691769 16.90694489 -0.44152615 8.45500147 0 0 Z " fill="#860201" transform="translate(309,38)"/>
<path d="M0 0 C5.15452318 0.06016953 8.43616835 0.62293637 12.875 3.25 C16.49203132 6.97206309 17.46313869 9.45212896 17.5 14.625 C17.33368291 20.06418478 16.47813479 23.09951359 12.67578125 26.98046875 C8.44209366 29.96517258 4.6711653 30.48727836 -0.4375 30.375 C-1.50613281 30.35695313 -2.57476562 30.33890625 -3.67578125 30.3203125 C-4.48402344 30.29710937 -5.29226562 30.27390625 -6.125 30.25 C-6.14965746 26.1382744 -6.16783959 22.02657722 -6.17993164 17.91479492 C-6.1849708 16.51504772 -6.19180216 15.1153058 -6.20043945 13.71557617 C-6.2125232 11.70754223 -6.21769807 9.69947043 -6.22265625 7.69140625 C-6.22789307 6.48170166 -6.23312988 5.27199707 -6.23852539 4.02563477 C-6.04718916 -0.65243314 -4.22198034 0.0690242 0 0 Z " fill="#B71515" transform="translate(160.125,386.75)"/>
<path d="M0 0 C0.33 0 0.66 0 1 0 C1.25 7.625 1.25 7.625 -1 11 C-1.66 11 -2.32 11 -3 11 C-2.01 7.37 -1.02 3.74 0 0 Z " fill="#C24242" transform="translate(193,409)"/>
<path d="" fill="#D81618" transform="translate(0,0)"/>
<path d="" fill="#D81618" transform="translate(0,0)"/>
<path d="" fill="#D81618" transform="translate(0,0)"/>
<path d="" fill="#D81618" transform="translate(0,0)"/>
</svg>
